<svg width="512" height="512" viewBox="0 0 512 512" fill="none" xmlns="http://www.w3.org/2000/svg">
<rect width="512" height="512" fill="#120E0B"/>
<g clip-path="url(#clip0_2003_11)">
<path d="M422.615 212.844H89.2048C69.7617 212.844 54 228.601 54 248.038V437.305C54 456.742 69.7617 472.498 89.2048 472.498H422.615C442.058 472.498 457.82 456.742 457.82 437.305V248.038C457.82 228.601 442.058 212.844 422.615 212.844Z" fill="#E7B233"/>
<mask id="mask0_2003_11" style="mask-type:luminance" maskUnits="userSpaceOnUse" x="74" y="243" width="364" height="199">
<path d="M437.099 243.073H74.2392V441.495H437.099V243.073Z" fill="white"/>
</mask>
<g mask="url(#mask0_2003_11)">
<path d="M191.882 400.15C192.189 400.15 194.508 400.109 197.039 400.115C199.57 400.121 201.529 400.115 201.405 400.115C201.281 400.115 198.963 400.145 196.254 400.15C193.546 400.156 191.576 400.197 191.882 400.15Z" fill="#FDDC8F"/>
<path d="M192.118 400.15C192.687 400.099 193.259 400.083 193.829 400.103C194.75 400.103 195.458 400.103 195.405 400.133C195.175 400.185 192.089 400.197 192.118 400.133V400.15Z" fill="#FDDC8F"/>
<path d="M196.668 243.073H161.267C155.564 243.073 150.941 247.699 150.941 253.407V288.838C150.941 294.545 155.564 299.172 161.267 299.172H196.668C202.37 299.172 206.993 294.545 206.993 288.838V253.407C206.993 247.699 202.37 243.073 196.668 243.073Z" fill="#FDDC8F"/>
<path d="M273.37 243.073H237.969C232.266 243.073 227.643 247.699 227.643 253.407V288.838C227.643 294.545 232.266 299.172 237.969 299.172H273.37C279.072 299.172 283.695 294.545 283.695 288.838V253.407C283.695 247.699 279.072 243.073 273.37 243.073Z" fill="#FDDC8F"/>
<path d="M350.072 243.073H314.671C308.968 243.073 304.346 247.699 304.346 253.407V288.838C304.346 294.545 308.968 299.172 314.671 299.172H350.072C355.774 299.172 360.397 294.545 360.397 288.838V253.407C360.397 247.699 355.774 243.073 350.072 243.073Z" fill="#FDDC8F"/>
<path d="M196.668 319.84H161.267C155.564 319.84 150.941 324.466 150.941 330.174V365.605C150.941 371.313 155.564 375.939 161.267 375.939H196.668C202.37 375.939 206.993 371.313 206.993 365.605V330.174C206.993 324.466 202.37 319.84 196.668 319.84Z" fill="#FDDC8F"/>
<path d="M273.37 319.84H237.969C232.266 319.84 227.643 324.466 227.643 330.174V365.605C227.643 371.313 232.266 375.939 237.969 375.939H273.37C279.072 375.939 283.695 371.313 283.695 365.605V330.174C283.695 324.466 279.072 319.84 273.37 319.84Z" fill="#FDDC8F"/>
<path d="M350.072 319.84H314.671C308.968 319.84 304.346 324.466 304.346 330.174V365.605C304.346 371.313 308.968 375.939 314.671 375.939H350.072C355.774 375.939 360.397 371.313 360.397 365.605V330.174C360.397 324.466 355.774 319.84 350.072 319.84Z" fill="#FDDC8F"/>
<path d="M119.966 243.073H84.5645C78.862 243.073 74.2392 247.699 74.2392 253.407V288.838C74.2392 294.545 78.862 299.172 84.5645 299.172H119.966C125.668 299.172 130.291 294.545 130.291 288.838V253.407C130.291 247.699 125.668 243.073 119.966 243.073Z" fill="#FDDC8F"/>
<path d="M426.774 243.073H391.373C385.67 243.073 381.048 247.699 381.048 253.407V288.838C381.048 294.545 385.67 299.172 391.373 299.172H426.774C432.476 299.172 437.099 294.545 437.099 288.838V253.407C437.099 247.699 432.476 243.073 426.774 243.073Z" fill="#FDDC8F"/>
<path d="M119.966 319.84H84.5645C78.862 319.84 74.2392 324.466 74.2392 330.174V365.605C74.2392 371.313 78.862 375.939 84.5645 375.939H119.966C125.668 375.939 130.291 371.313 130.291 365.605V330.174C130.291 324.466 125.668 319.84 119.966 319.84Z" fill="#FDDC8F"/>
<path d="M426.774 319.84H391.373C385.67 319.84 381.048 324.466 381.048 330.174V365.605C381.048 371.313 385.67 375.939 391.373 375.939H426.774C432.476 375.939 437.099 371.313 437.099 365.605V330.174C437.099 324.466 432.476 319.84 426.774 319.84Z" fill="#FDDC8F"/>
</g>
<path d="M360.601 396.299H151.219C148.421 396.299 146.154 398.962 146.154 402.248V435.395C146.154 438.68 148.421 441.344 151.219 441.344H360.601C363.399 441.344 365.666 438.68 365.666 435.395V402.248C365.666 398.962 363.399 396.299 360.601 396.299Z" fill="#FDDC8F"/>
</g>
<path fill-rule="evenodd" clip-rule="evenodd" d="M153.779 255.086L255.534 342.461L255.598 342.516L255.158 342.346L356.531 254.971C370.79 243.268 374.517 237.794 374.534 223.54V71.5779C374.266 51.9508 363.87 40.6655 344.969 40H166.228C147.327 40.6655 136.427 52.0658 136.159 71.6929L136.281 223.54C136.298 237.794 139.519 243.383 153.779 255.086Z" fill="#F2F2F2"/>
<mask id="path-18-outside-1_2003_11" maskUnits="userSpaceOnUse" x="208" y="65.4982" width="95" height="209" fill="black">
<rect fill="white" x="208" y="65.4982" width="95" height="209"/>
<path d="M242.236 273.498L251.436 186.698C244.769 186.831 237.636 187.498 230.036 188.698C222.569 189.898 215.769 191.031 209.636 192.098V169.898C212.703 170.431 216.436 171.098 220.836 171.898C225.236 172.698 229.769 173.431 234.436 174.098C239.236 174.631 243.703 175.031 247.836 175.298C246.503 173.031 244.569 169.765 242.036 165.498C239.503 161.231 236.769 156.365 233.836 150.898C230.903 145.432 228.103 139.765 225.436 133.898C222.769 127.898 220.569 122.098 218.836 116.498C217.236 110.765 216.436 105.565 216.436 100.898C216.436 92.4982 218.303 85.7648 222.036 80.6982C225.769 75.6315 230.636 72.0315 236.636 69.8982C242.636 67.6315 248.969 66.4982 255.636 66.4982C262.303 66.4982 268.569 67.6315 274.436 69.8982C280.436 72.0315 285.303 75.6315 289.036 80.6982C292.903 85.7648 294.836 92.4982 294.836 100.898C294.836 105.565 293.969 110.765 292.236 116.498C290.503 122.098 288.303 127.898 285.636 133.898C283.103 139.765 280.369 145.432 277.436 150.898C274.503 156.365 271.769 161.231 269.236 165.498C266.703 169.765 264.703 173.031 263.236 175.298C267.503 175.031 271.969 174.631 276.636 174.098C281.436 173.431 286.036 172.698 290.436 171.898C294.836 171.098 298.503 170.431 301.436 169.898V192.298C295.169 191.098 288.303 189.898 280.836 188.698C273.369 187.498 266.303 186.831 259.636 186.698L268.836 273.498H242.236ZM252.636 175.498H258.236C256.369 172.031 254.103 167.898 251.436 163.098C248.769 158.165 245.969 152.898 243.036 147.298C240.236 141.698 237.569 136.098 235.036 130.498C232.503 124.765 230.436 119.365 228.836 114.298C227.236 109.098 226.436 104.631 226.436 100.898C226.436 94.6315 227.969 89.7648 231.036 86.2982C234.236 82.6982 238.103 80.1648 242.636 78.6982C247.169 77.2315 251.503 76.4982 255.636 76.4982C259.769 76.4982 264.036 77.2315 268.436 78.6982C272.969 80.1648 276.836 82.6982 280.036 86.2982C283.236 89.7648 284.836 94.6315 284.836 100.898C284.836 104.898 283.903 109.698 282.036 115.298C280.303 120.765 278.036 126.565 275.236 132.698C272.436 138.698 269.503 144.631 266.436 150.498C263.369 156.365 260.503 161.698 257.836 166.498L260.836 171.698C262.303 169.165 264.236 165.831 266.636 161.698C269.169 157.431 271.836 152.698 274.636 147.498C277.436 142.165 280.036 136.698 282.436 131.098C284.969 125.498 286.969 120.098 288.436 114.898C290.036 109.698 290.836 105.031 290.836 100.898C290.836 93.4315 289.169 87.4982 285.836 83.0982C282.503 78.6982 278.103 75.4982 272.636 73.4982C267.303 71.4982 261.636 70.4982 255.636 70.4982C249.636 70.4982 243.969 71.4982 238.636 73.4982C233.303 75.4982 228.903 78.6982 225.436 83.0982C222.103 87.4982 220.436 93.4315 220.436 100.898C220.436 105.698 221.503 111.298 223.636 117.698C225.769 123.965 228.369 130.431 231.436 137.098C234.636 143.631 237.769 149.765 240.836 155.498C244.036 161.231 246.769 165.965 249.036 169.698C251.303 173.298 252.503 175.232 252.636 175.498ZM255.636 162.498C258.303 157.565 261.103 152.231 264.036 146.498C266.969 140.765 269.703 135.031 272.236 129.298C274.769 123.565 276.836 118.231 278.436 113.298C280.036 108.365 280.836 104.231 280.836 100.898C280.836 95.5648 279.436 91.4315 276.636 88.4982C273.969 85.5648 270.703 83.4982 266.836 82.2982C262.969 80.9648 259.236 80.2982 255.636 80.2982C252.036 80.2982 248.236 80.9648 244.236 82.2982C240.369 83.4982 237.036 85.5648 234.236 88.4982C231.569 91.4315 230.236 95.5648 230.236 100.898C230.236 104.231 231.036 108.365 232.636 113.298C234.236 118.231 236.303 123.565 238.836 129.298C241.369 135.031 244.103 140.765 247.036 146.498C250.103 152.231 252.969 157.565 255.636 162.498ZM213.436 187.498C216.369 186.965 220.103 186.365 224.636 185.698C229.303 184.898 234.303 184.231 239.636 183.698C245.103 183.031 250.369 182.698 255.436 182.698C260.503 182.698 265.703 183.031 271.036 183.698C276.503 184.231 281.569 184.898 286.236 185.698C290.903 186.365 294.636 186.965 297.436 187.498V174.698C295.303 175.098 291.903 175.698 287.236 176.498C282.569 177.165 277.369 177.831 271.636 178.498C266.036 179.165 260.636 179.498 255.436 179.498C251.836 179.498 247.436 179.231 242.236 178.698C237.169 178.165 232.036 177.565 226.836 176.898C221.769 176.098 217.303 175.365 213.436 174.698V187.498ZM246.836 269.698H264.436C262.703 256.232 261.236 242.498 260.036 228.498C258.836 214.498 257.369 200.565 255.636 186.698L246.836 269.698Z"/>
</mask>
<path d="M242.236 273.498L251.436 186.698C244.769 186.831 237.636 187.498 230.036 188.698C222.569 189.898 215.769 191.031 209.636 192.098V169.898C212.703 170.431 216.436 171.098 220.836 171.898C225.236 172.698 229.769 173.431 234.436 174.098C239.236 174.631 243.703 175.031 247.836 175.298C246.503 173.031 244.569 169.765 242.036 165.498C239.503 161.231 236.769 156.365 233.836 150.898C230.903 145.432 228.103 139.765 225.436 133.898C222.769 127.898 220.569 122.098 218.836 116.498C217.236 110.765 216.436 105.565 216.436 100.898C216.436 92.4982 218.303 85.7648 222.036 80.6982C225.769 75.6315 230.636 72.0315 236.636 69.8982C242.636 67.6315 248.969 66.4982 255.636 66.4982C262.303 66.4982 268.569 67.6315 274.436 69.8982C280.436 72.0315 285.303 75.6315 289.036 80.6982C292.903 85.7648 294.836 92.4982 294.836 100.898C294.836 105.565 293.969 110.765 292.236 116.498C290.503 122.098 288.303 127.898 285.636 133.898C283.103 139.765 280.369 145.432 277.436 150.898C274.503 156.365 271.769 161.231 269.236 165.498C266.703 169.765 264.703 173.031 263.236 175.298C267.503 175.031 271.969 174.631 276.636 174.098C281.436 173.431 286.036 172.698 290.436 171.898C294.836 171.098 298.503 170.431 301.436 169.898V192.298C295.169 191.098 288.303 189.898 280.836 188.698C273.369 187.498 266.303 186.831 259.636 186.698L268.836 273.498H242.236ZM252.636 175.498H258.236C256.369 172.031 254.103 167.898 251.436 163.098C248.769 158.165 245.969 152.898 243.036 147.298C240.236 141.698 237.569 136.098 235.036 130.498C232.503 124.765 230.436 119.365 228.836 114.298C227.236 109.098 226.436 104.631 226.436 100.898C226.436 94.6315 227.969 89.7648 231.036 86.2982C234.236 82.6982 238.103 80.1648 242.636 78.6982C247.169 77.2315 251.503 76.4982 255.636 76.4982C259.769 76.4982 264.036 77.2315 268.436 78.6982C272.969 80.1648 276.836 82.6982 280.036 86.2982C283.236 89.7648 284.836 94.6315 284.836 100.898C284.836 104.898 283.903 109.698 282.036 115.298C280.303 120.765 278.036 126.565 275.236 132.698C272.436 138.698 269.503 144.631 266.436 150.498C263.369 156.365 260.503 161.698 257.836 166.498L260.836 171.698C262.303 169.165 264.236 165.831 266.636 161.698C269.169 157.431 271.836 152.698 274.636 147.498C277.436 142.165 280.036 136.698 282.436 131.098C284.969 125.498 286.969 120.098 288.436 114.898C290.036 109.698 290.836 105.031 290.836 100.898C290.836 93.4315 289.169 87.4982 285.836 83.0982C282.503 78.6982 278.103 75.4982 272.636 73.4982C267.303 71.4982 261.636 70.4982 255.636 70.4982C249.636 70.4982 243.969 71.4982 238.636 73.4982C233.303 75.4982 228.903 78.6982 225.436 83.0982C222.103 87.4982 220.436 93.4315 220.436 100.898C220.436 105.698 221.503 111.298 223.636 117.698C225.769 123.965 228.369 130.431 231.436 137.098C234.636 143.631 237.769 149.765 240.836 155.498C244.036 161.231 246.769 165.965 249.036 169.698C251.303 173.298 252.503 175.232 252.636 175.498ZM255.636 162.498C258.303 157.565 261.103 152.231 264.036 146.498C266.969 140.765 269.703 135.031 272.236 129.298C274.769 123.565 276.836 118.231 278.436 113.298C280.036 108.365 280.836 104.231 280.836 100.898C280.836 95.5648 279.436 91.4315 276.636 88.4982C273.969 85.5648 270.703 83.4982 266.836 82.2982C262.969 80.9648 259.236 80.2982 255.636 80.2982C252.036 80.2982 248.236 80.9648 244.236 82.2982C240.369 83.4982 237.036 85.5648 234.236 88.4982C231.569 91.4315 230.236 95.5648 230.236 100.898C230.236 104.231 231.036 108.365 232.636 113.298C234.236 118.231 236.303 123.565 238.836 129.298C241.369 135.031 244.103 140.765 247.036 146.498C250.103 152.231 252.969 157.565 255.636 162.498ZM213.436 187.498C216.369 186.965 220.103 186.365 224.636 185.698C229.303 184.898 234.303 184.231 239.636 183.698C245.103 183.031 250.369 182.698 255.436 182.698C260.503 182.698 265.703 183.031 271.036 183.698C276.503 184.231 281.569 184.898 286.236 185.698C290.903 186.365 294.636 186.965 297.436 187.498V174.698C295.303 175.098 291.903 175.698 287.236 176.498C282.569 177.165 277.369 177.831 271.636 178.498C266.036 179.165 260.636 179.498 255.436 179.498C251.836 179.498 247.436 179.231 242.236 178.698C237.169 178.165 232.036 177.565 226.836 176.898C221.769 176.098 217.303 175.365 213.436 174.698V187.498ZM246.836 269.698H264.436C262.703 256.232 261.236 242.498 260.036 228.498C258.836 214.498 257.369 200.565 255.636 186.698L246.836 269.698Z" fill="#E7B233"/>
<path d="M242.236 273.498L241.242 273.393L241.124 274.498H242.236V273.498ZM251.436 186.698L252.43 186.804L252.55 185.676L251.416 185.698L251.436 186.698ZM230.036 188.698L229.88 187.71L229.877 187.711L230.036 188.698ZM209.636 192.098H208.636V193.287L209.807 193.083L209.636 192.098ZM209.636 169.898L209.807 168.913L208.636 168.709V169.898H209.636ZM220.836 171.898L220.657 172.882L220.657 172.882L220.836 171.898ZM234.436 174.098L234.295 175.088L234.31 175.09L234.326 175.092L234.436 174.098ZM247.836 175.298L247.772 176.296L249.655 176.418L248.698 174.791L247.836 175.298ZM242.036 165.498L242.896 164.988L242.896 164.988L242.036 165.498ZM233.836 150.898L232.955 151.371L232.955 151.371L233.836 150.898ZM225.436 133.898L224.522 134.304L224.526 134.312L225.436 133.898ZM218.836 116.498L217.873 116.767L217.877 116.78L217.881 116.794L218.836 116.498ZM222.036 80.6982L222.841 81.2914L222.841 81.2914L222.036 80.6982ZM236.636 69.8982L236.971 70.8404L236.98 70.8371L236.989 70.8336L236.636 69.8982ZM274.436 69.8982L274.076 70.831L274.088 70.8358L274.101 70.8404L274.436 69.8982ZM289.036 80.6982L288.231 81.2914L288.236 81.2981L288.241 81.3048L289.036 80.6982ZM292.236 116.498L293.191 116.794L293.193 116.788L292.236 116.498ZM285.636 133.898L284.722 133.492L284.718 133.502L285.636 133.898ZM277.436 150.898L278.317 151.371L278.317 151.371L277.436 150.898ZM269.236 165.498L268.376 164.988L268.376 164.988L269.236 165.498ZM263.236 175.298L262.396 174.755L261.319 176.42L263.298 176.296L263.236 175.298ZM276.636 174.098L276.749 175.092L276.762 175.09L276.774 175.089L276.636 174.098ZM290.436 171.898L290.615 172.882L290.615 172.882L290.436 171.898ZM301.436 169.898H302.436V168.7L301.257 168.914L301.436 169.898ZM301.436 192.298L301.248 193.28L302.436 193.508V192.298H301.436ZM280.836 188.698L280.995 187.711L280.995 187.711L280.836 188.698ZM259.636 186.698L259.656 185.698L258.522 185.676L258.642 186.804L259.636 186.698ZM268.836 273.498V274.498H269.948L269.83 273.393L268.836 273.498ZM252.636 175.498L251.742 175.945L252.018 176.498H252.636V175.498ZM258.236 175.498V176.498H259.91L259.116 175.024L258.236 175.498ZM251.436 163.098L250.556 163.574L250.562 163.584L251.436 163.098ZM243.036 147.298L242.142 147.745L242.146 147.754L242.15 147.762L243.036 147.298ZM235.036 130.498L234.121 130.902L234.125 130.91L235.036 130.498ZM228.836 114.298L227.88 114.592L227.882 114.599L228.836 114.298ZM231.036 86.2982L230.289 85.6338L230.287 85.6356L231.036 86.2982ZM242.636 78.6982L242.328 77.7467L242.328 77.7467L242.636 78.6982ZM268.436 78.6982L268.12 79.6469L268.128 79.6496L268.436 78.6982ZM280.036 86.2982L279.289 86.9625L279.295 86.9695L279.301 86.9764L280.036 86.2982ZM282.036 115.298L281.087 114.982L281.085 114.989L281.083 114.996L282.036 115.298ZM275.236 132.698L276.142 133.121L276.146 133.113L275.236 132.698ZM266.436 150.498L265.55 150.035L265.55 150.035L266.436 150.498ZM257.836 166.498L256.962 166.013L256.687 166.507L256.97 166.998L257.836 166.498ZM260.836 171.698L259.97 172.198L260.834 173.697L261.701 172.199L260.836 171.698ZM266.636 161.698L265.776 161.188L265.771 161.196L266.636 161.698ZM274.636 147.498L275.516 147.972L275.521 147.963L274.636 147.498ZM282.436 131.098L281.525 130.686L281.521 130.695L281.517 130.704L282.436 131.098ZM288.436 114.898L287.48 114.604L287.477 114.615L287.473 114.627L288.436 114.898ZM285.836 83.0982L285.039 83.702L285.039 83.702L285.836 83.0982ZM272.636 73.4982L272.285 74.4345L272.292 74.4373L272.636 73.4982ZM238.636 73.4982L238.987 74.4345L238.987 74.4345L238.636 73.4982ZM225.436 83.0982L224.65 82.4793L224.645 82.4867L224.639 82.4943L225.436 83.0982ZM223.636 117.698L222.687 118.014L222.689 118.02L223.636 117.698ZM231.436 137.098L230.527 137.516L230.533 137.527L230.538 137.538L231.436 137.098ZM240.836 155.498L239.954 155.97L239.958 155.978L239.963 155.986L240.836 155.498ZM249.036 169.698L248.181 170.217L248.185 170.224L248.19 170.231L249.036 169.698ZM255.636 162.498L254.756 162.974L255.636 164.601L256.516 162.974L255.636 162.498ZM264.036 146.498L263.146 146.043L263.146 146.043L264.036 146.498ZM272.236 129.298L271.321 128.894L271.321 128.894L272.236 129.298ZM278.436 113.298L277.485 112.99L277.485 112.99L278.436 113.298ZM276.636 88.4982L275.896 89.1708L275.904 89.1798L275.913 89.1886L276.636 88.4982ZM266.836 82.2982L266.51 83.2435L266.525 83.2486L266.54 83.2532L266.836 82.2982ZM244.236 82.2982L244.532 83.2532L244.542 83.2501L244.552 83.2468L244.236 82.2982ZM234.236 88.4982L233.513 87.8077L233.504 87.8165L233.496 87.8255L234.236 88.4982ZM232.636 113.298L231.685 113.607L231.685 113.607L232.636 113.298ZM238.836 129.298L239.751 128.894L239.751 128.894L238.836 129.298ZM247.036 146.498L246.146 146.954L246.15 146.962L246.154 146.97L247.036 146.498ZM213.436 187.498H212.436V188.696L213.615 188.482L213.436 187.498ZM224.636 185.698L224.781 186.688L224.793 186.686L224.805 186.684L224.636 185.698ZM239.636 183.698L239.735 184.693L239.746 184.692L239.757 184.691L239.636 183.698ZM271.036 183.698L270.912 184.69L270.925 184.692L270.939 184.693L271.036 183.698ZM286.236 185.698L286.067 186.684L286.081 186.686L286.095 186.688L286.236 185.698ZM297.436 187.498L297.249 188.481L298.436 188.707V187.498H297.436ZM297.436 174.698H298.436V173.493L297.252 173.715L297.436 174.698ZM287.236 176.498L287.377 177.488L287.391 177.486L287.405 177.484L287.236 176.498ZM271.636 178.498L271.52 177.505L271.518 177.505L271.636 178.498ZM242.236 178.698L242.131 179.693L242.134 179.693L242.236 178.698ZM226.836 176.898L226.68 177.886L226.694 177.888L226.709 177.89L226.836 176.898ZM213.436 174.698L213.606 173.713L212.436 173.511V174.698H213.436ZM246.836 269.698L245.842 269.593L245.724 270.698H246.836V269.698ZM264.436 269.698V270.698H265.573L265.428 269.571L264.436 269.698ZM260.036 228.498L261.032 228.413L261.032 228.413L260.036 228.498ZM255.636 186.698L256.628 186.574L254.642 186.593L255.636 186.698ZM242.236 273.498L243.23 273.604L252.43 186.804L251.436 186.698L250.442 186.593L241.242 273.393L242.236 273.498ZM251.436 186.698L251.416 185.698C244.697 185.833 237.518 186.504 229.88 187.71L230.036 188.698L230.192 189.686C237.754 188.492 244.841 187.83 251.456 187.698L251.436 186.698ZM230.036 188.698L229.877 187.711C222.407 188.911 215.603 190.045 209.465 191.113L209.636 192.098L209.807 193.083C215.936 192.018 222.731 190.885 230.195 189.685L230.036 188.698ZM209.636 192.098H210.636V169.898H209.636H208.636V192.098H209.636ZM209.636 169.898L209.465 170.883C212.528 171.416 216.259 172.082 220.657 172.882L220.836 171.898L221.015 170.914C216.613 170.114 212.877 169.447 209.807 168.913L209.636 169.898ZM220.836 171.898L220.657 172.882C225.07 173.684 229.616 174.42 234.295 175.088L234.436 174.098L234.577 173.108C229.923 172.443 225.402 171.712 221.015 170.914L220.836 171.898ZM234.436 174.098L234.326 175.092C239.138 175.627 243.621 176.028 247.772 176.296L247.836 175.298L247.9 174.3C243.785 174.035 239.333 173.636 234.546 173.104L234.436 174.098ZM247.836 175.298L248.698 174.791C247.363 172.523 245.429 169.255 242.896 164.988L242.036 165.498L241.176 166.009C243.709 170.275 245.642 173.54 246.974 175.805L247.836 175.298ZM242.036 165.498L242.896 164.988C240.371 160.736 237.645 155.882 234.717 150.425L233.836 150.898L232.955 151.371C235.893 156.847 238.634 161.727 241.176 166.009L242.036 165.498ZM233.836 150.898L234.717 150.425C231.795 144.979 229.004 139.332 226.346 133.484L225.436 133.898L224.526 134.312C227.201 140.198 230.011 145.884 232.955 151.371L233.836 150.898ZM225.436 133.898L226.35 133.492C223.697 127.524 221.512 121.761 219.791 116.202L218.836 116.498L217.881 116.794C219.627 122.436 221.841 128.273 224.522 134.304L225.436 133.898ZM218.836 116.498L219.799 116.229C218.217 110.561 217.436 105.453 217.436 100.898H216.436H215.436C215.436 105.677 216.255 110.969 217.873 116.767L218.836 116.498ZM216.436 100.898H217.436C217.436 92.6409 219.271 86.1368 222.841 81.2914L222.036 80.6982L221.231 80.105C217.335 85.3929 215.436 92.3555 215.436 100.898H216.436ZM222.036 80.6982L222.841 81.2914C226.454 76.3873 231.157 72.9077 236.971 70.8404L236.636 69.8982L236.301 68.9559C230.115 71.1553 225.084 74.8757 221.231 80.105L222.036 80.6982ZM236.636 69.8982L236.989 70.8336C242.872 68.6113 249.085 67.4982 255.636 67.4982V66.4982V65.4982C248.853 65.4982 242.4 66.6517 236.283 68.9627L236.636 69.8982ZM255.636 66.4982V67.4982C262.187 67.4982 268.331 68.6113 274.076 70.831L274.436 69.8982L274.796 68.9654C268.808 66.6517 262.418 65.4982 255.636 65.4982V66.4982ZM274.436 69.8982L274.101 70.8404C279.915 72.9077 284.617 76.3873 288.231 81.2914L289.036 80.6982L289.841 80.105C285.988 74.8757 280.957 71.1553 274.771 68.9559L274.436 69.8982ZM289.036 80.6982L288.241 81.3048C291.938 86.149 293.836 92.6477 293.836 100.898H294.836H295.836C295.836 92.3486 293.867 85.3807 289.831 80.0915L289.036 80.6982ZM294.836 100.898H293.836C293.836 105.444 292.991 110.544 291.279 116.209L292.236 116.498L293.193 116.788C294.947 110.986 295.836 105.686 295.836 100.898H294.836ZM292.236 116.498L291.281 116.202C289.56 121.761 287.375 127.524 284.722 133.492L285.636 133.898L286.55 134.304C289.231 128.273 291.445 122.436 293.191 116.794L292.236 116.498ZM285.636 133.898L284.718 133.502C282.195 139.343 279.474 144.984 276.555 150.425L277.436 150.898L278.317 151.371C281.264 145.879 284.01 140.186 286.554 134.295L285.636 133.898ZM277.436 150.898L276.555 150.425C273.627 155.882 270.9 160.736 268.376 164.988L269.236 165.498L270.096 166.009C272.638 161.727 275.379 156.847 278.317 151.371L277.436 150.898ZM269.236 165.498L268.376 164.988C265.845 169.251 263.853 172.504 262.396 174.755L263.236 175.298L264.076 175.841C265.553 173.559 267.56 170.279 270.096 166.009L269.236 165.498ZM263.236 175.298L263.298 176.296C267.584 176.028 272.067 175.627 276.749 175.092L276.636 174.098L276.522 173.105C271.871 173.636 267.422 174.035 263.174 174.3L263.236 175.298ZM276.636 174.098L276.774 175.089C281.586 174.42 286.2 173.685 290.615 172.882L290.436 171.898L290.257 170.914C285.872 171.712 281.286 172.443 276.498 173.108L276.636 174.098ZM290.436 171.898L290.615 172.882C295.015 172.082 298.681 171.415 301.615 170.882L301.436 169.898L301.257 168.914C298.324 169.448 294.657 170.114 290.257 170.914L290.436 171.898ZM301.436 169.898H300.436V192.298H301.436H302.436V169.898H301.436ZM301.436 192.298L301.624 191.316C295.346 190.114 288.469 188.912 280.995 187.711L280.836 188.698L280.677 189.685C288.136 190.884 294.993 192.082 301.248 193.28L301.436 192.298ZM280.836 188.698L280.995 187.711C273.488 186.504 266.375 185.833 259.656 185.698L259.636 186.698L259.616 187.698C266.23 187.83 273.251 188.492 280.677 189.685L280.836 188.698ZM259.636 186.698L258.642 186.804L267.842 273.604L268.836 273.498L269.83 273.393L260.63 186.593L259.636 186.698ZM268.836 273.498V272.498H242.236V273.498V274.498H268.836V273.498ZM252.636 175.498V176.498H258.236V175.498V174.498H252.636V175.498ZM258.236 175.498L259.116 175.024C257.247 171.552 254.978 167.415 252.31 162.613L251.436 163.098L250.562 163.584C253.227 168.381 255.492 172.511 257.355 175.972L258.236 175.498ZM251.436 163.098L252.316 162.623C249.651 157.694 246.853 152.431 243.922 146.834L243.036 147.298L242.15 147.762C245.085 153.366 247.887 158.636 250.556 163.574L251.436 163.098ZM243.036 147.298L243.93 146.851C241.136 141.262 238.475 135.674 235.947 130.086L235.036 130.498L234.125 130.91C236.664 136.522 239.336 142.134 242.142 147.745L243.036 147.298ZM235.036 130.498L235.951 130.094C233.43 124.388 231.377 119.023 229.79 113.997L228.836 114.298L227.882 114.599C229.495 119.707 231.576 125.141 234.121 130.902L235.036 130.498ZM228.836 114.298L229.792 114.004C228.209 108.86 227.436 104.498 227.436 100.898H226.436H225.436C225.436 104.765 226.263 109.336 227.88 114.592L228.836 114.298ZM226.436 100.898H227.436C227.436 94.7884 228.93 90.1884 231.785 86.9607L231.036 86.2982L230.287 85.6356C227.009 89.3412 225.436 94.4746 225.436 100.898H226.436ZM231.036 86.2982L231.783 86.9625C234.866 83.4941 238.582 81.0608 242.944 79.6496L242.636 78.6982L242.328 77.7467C237.623 79.2688 233.606 81.9022 230.289 85.6338L231.036 86.2982ZM242.636 78.6982L242.944 79.6496C247.393 78.2103 251.622 77.4982 255.636 77.4982V76.4982V75.4982C251.384 75.4982 246.946 76.2527 242.328 77.7467L242.636 78.6982ZM255.636 76.4982V77.4982C259.65 77.4982 263.809 78.2101 268.12 79.6468L268.436 78.6982L268.752 77.7495C264.263 76.2529 259.889 75.4982 255.636 75.4982V76.4982ZM268.436 78.6982L268.128 79.6496C272.49 81.0608 276.206 83.4941 279.289 86.9625L280.036 86.2982L280.783 85.6338C277.466 81.9022 273.449 79.2688 268.744 77.7467L268.436 78.6982ZM280.036 86.2982L279.301 86.9764C282.281 90.2046 283.836 94.7985 283.836 100.898H284.836H285.836C285.836 94.4645 284.191 89.3251 280.771 85.6199L280.036 86.2982ZM284.836 100.898H283.836C283.836 104.753 282.935 109.44 281.087 114.982L282.036 115.298L282.985 115.614C284.871 109.956 285.836 105.044 285.836 100.898H284.836ZM282.036 115.298L281.083 114.996C279.363 120.418 277.112 126.18 274.326 132.283L275.236 132.698L276.146 133.113C278.96 126.95 281.242 121.112 282.989 115.6L282.036 115.298ZM275.236 132.698L274.33 132.275C271.536 138.262 268.609 144.182 265.55 150.035L266.436 150.498L267.322 150.961C270.396 145.081 273.336 139.135 276.142 133.121L275.236 132.698ZM266.436 150.498L265.55 150.035C262.486 155.896 259.624 161.221 256.962 166.013L257.836 166.498L258.71 166.984C261.382 162.175 264.252 156.834 267.322 150.961L266.436 150.498ZM257.836 166.498L256.97 166.998L259.97 172.198L260.836 171.698L261.702 171.198L258.702 165.998L257.836 166.498ZM260.836 171.698L261.701 172.199C263.168 169.666 265.101 166.333 267.501 162.2L266.636 161.698L265.771 161.196C263.371 165.33 261.437 168.663 259.971 171.197L260.836 171.698ZM266.636 161.698L267.496 162.209C270.037 157.928 272.711 153.182 275.516 147.972L274.636 147.498L273.755 147.024C270.961 152.214 268.301 156.935 265.776 161.188L266.636 161.698ZM274.636 147.498L275.521 147.963C278.334 142.606 280.945 137.116 283.355 131.492L282.436 131.098L281.517 130.704C279.127 136.28 276.538 141.723 273.751 147.033L274.636 147.498ZM282.436 131.098L283.347 131.51C285.898 125.871 287.916 120.424 289.398 115.17L288.436 114.898L287.473 114.627C286.022 119.773 284.04 125.125 281.525 130.686L282.436 131.098ZM288.436 114.898L289.392 115.192C291.012 109.925 291.836 105.157 291.836 100.898H290.836H289.836C289.836 104.906 289.06 109.471 287.48 114.604L288.436 114.898ZM290.836 100.898H291.836C291.836 93.2895 290.138 87.1203 286.633 82.4943L285.836 83.0982L285.039 83.702C288.201 87.8761 289.836 93.5735 289.836 100.898H290.836ZM285.836 83.0982L286.633 82.4943C283.177 77.9328 278.616 74.6212 272.98 72.559L272.636 73.4982L272.292 74.4373C277.589 76.3751 281.828 79.4635 285.039 83.702L285.836 83.0982ZM272.636 73.4982L272.987 72.5618C267.536 70.5175 261.749 69.4982 255.636 69.4982V70.4982V71.4982C261.522 71.4982 267.07 72.4788 272.285 74.4345L272.636 73.4982ZM255.636 70.4982V69.4982C249.522 69.4982 243.736 70.5175 238.285 72.5618L238.636 73.4982L238.987 74.4345C244.202 72.4788 249.749 71.4982 255.636 71.4982V70.4982ZM238.636 73.4982L238.285 72.5618C232.783 74.6248 228.232 77.9332 224.65 82.4793L225.436 83.0982L226.221 83.717C229.573 79.4631 233.822 76.3715 238.987 74.4345L238.636 73.4982ZM225.436 83.0982L224.639 82.4943C221.134 87.1203 219.436 93.2895 219.436 100.898H220.436H221.436C221.436 93.5735 223.071 87.8761 226.233 83.702L225.436 83.0982ZM220.436 100.898H219.436C219.436 105.839 220.533 111.55 222.687 118.014L223.636 117.698L224.585 117.382C222.473 111.046 221.436 105.557 221.436 100.898H220.436ZM223.636 117.698L222.689 118.02C224.835 124.323 227.448 130.822 230.527 137.516L231.436 137.098L232.344 136.68C229.291 130.041 226.704 123.607 224.583 117.376L223.636 117.698ZM231.436 137.098L230.538 137.538C233.743 144.081 236.881 150.225 239.954 155.97L240.836 155.498L241.718 155.027C238.657 149.305 235.529 143.182 232.334 136.658L231.436 137.098ZM240.836 155.498L239.963 155.986C243.166 161.725 245.906 166.47 248.181 170.217L249.036 169.698L249.891 169.179C247.633 165.46 244.906 160.738 241.709 155.011L240.836 155.498ZM249.036 169.698L248.19 170.231C249.323 172.03 250.188 173.412 250.786 174.376C251.086 174.858 251.317 175.233 251.481 175.504C251.563 175.639 251.627 175.746 251.673 175.825C251.724 175.913 251.742 175.945 251.742 175.945L252.636 175.498L253.53 175.051C253.437 174.864 253.067 174.258 252.486 173.321C251.884 172.351 251.016 170.966 249.882 169.165L249.036 169.698ZM255.636 162.498L256.516 162.974C259.186 158.033 261.99 152.693 264.926 146.954L264.036 146.498L263.146 146.043C260.215 151.77 257.419 157.097 254.756 162.023L255.636 162.498ZM264.036 146.498L264.926 146.954C267.868 141.204 270.609 135.453 273.151 129.702L272.236 129.298L271.321 128.894C268.796 134.61 266.071 140.326 263.146 146.043L264.036 146.498ZM272.236 129.298L273.151 129.702C275.695 123.944 277.775 118.578 279.387 113.607L278.436 113.298L277.485 112.99C275.897 117.885 273.844 123.186 271.321 128.894L272.236 129.298ZM278.436 113.298L279.387 113.607C281.004 108.623 281.836 104.378 281.836 100.898H280.836H279.836C279.836 104.085 279.068 108.107 277.485 112.99L278.436 113.298ZM280.836 100.898H281.836C281.836 95.3912 280.387 90.9798 277.359 87.8077L276.636 88.4982L275.913 89.1886C278.485 91.8832 279.836 95.7384 279.836 100.898H280.836ZM276.636 88.4982L277.376 87.8255C274.587 84.7572 271.166 82.5948 267.132 81.3431L266.836 82.2982L266.54 83.2532C270.24 84.4015 273.352 86.3724 275.896 89.1708L276.636 88.4982ZM266.836 82.2982L267.162 81.3528C263.204 79.9881 259.361 79.2982 255.636 79.2982V80.2982V81.2982C259.111 81.2982 262.734 81.9415 266.51 83.2435L266.836 82.2982ZM255.636 80.2982V79.2982C251.912 79.2982 248.005 79.9878 243.92 81.3495L244.236 82.2982L244.552 83.2468C248.467 81.9418 252.16 81.2982 255.636 81.2982V80.2982ZM244.236 82.2982L243.94 81.3431C239.91 82.5936 236.43 84.7515 233.513 87.8077L234.236 88.4982L234.959 89.1886C237.642 86.3782 240.828 84.4027 244.532 83.2532L244.236 82.2982ZM234.236 88.4982L233.496 87.8255C230.611 90.9986 229.236 95.4033 229.236 100.898H230.236H231.236C231.236 95.7264 232.527 91.8644 234.976 89.1708L234.236 88.4982ZM230.236 100.898H229.236C229.236 104.378 230.068 108.623 231.685 113.607L232.636 113.298L233.587 112.99C232.004 108.107 231.236 104.085 231.236 100.898H230.236ZM232.636 113.298L231.685 113.607C233.297 118.578 235.377 123.944 237.921 129.702L238.836 129.298L239.751 128.894C237.228 123.186 235.175 117.885 233.587 112.99L232.636 113.298ZM238.836 129.298L237.921 129.702C240.462 135.453 243.204 141.204 246.146 146.954L247.036 146.498L247.926 146.043C245.001 140.326 242.276 134.61 239.751 128.894L238.836 129.298ZM247.036 146.498L246.154 146.97C249.221 152.704 252.089 158.039 254.756 162.974L255.636 162.498L256.516 162.023C253.85 157.091 250.984 151.759 247.918 146.027L247.036 146.498ZM213.436 187.498L213.615 188.482C216.533 187.951 220.254 187.353 224.781 186.688L224.636 185.698L224.49 184.709C219.951 185.376 216.206 185.978 213.257 186.514L213.436 187.498ZM224.636 185.698L224.805 186.684C229.446 185.888 234.422 185.225 239.735 184.693L239.636 183.698L239.536 182.703C234.183 183.238 229.159 183.908 224.467 184.713L224.636 185.698ZM239.636 183.698L239.757 184.691C245.187 184.029 250.413 183.698 255.436 183.698V182.698V181.698C250.326 181.698 245.018 182.034 239.515 182.706L239.636 183.698ZM255.436 182.698V183.698C260.459 183.698 265.617 184.029 270.912 184.69L271.036 183.698L271.16 182.706C265.788 182.034 260.546 181.698 255.436 181.698V182.698ZM271.036 183.698L270.939 184.693C276.385 185.225 281.428 185.888 286.067 186.684L286.236 185.698L286.405 184.713C281.711 183.908 276.62 183.238 271.133 182.703L271.036 183.698ZM286.236 185.698L286.095 186.688C290.754 187.354 294.471 187.951 297.249 188.481L297.436 187.498L297.623 186.516C294.801 185.978 291.051 185.376 286.377 184.708L286.236 185.698ZM297.436 187.498H298.436V174.698H297.436H296.436V187.498H297.436ZM297.436 174.698L297.252 173.715C295.127 174.114 291.733 174.713 287.067 175.513L287.236 176.498L287.405 177.484C292.072 176.684 295.479 176.083 297.62 175.681L297.436 174.698ZM287.236 176.498L287.095 175.508C282.438 176.173 277.247 176.839 271.52 177.505L271.636 178.498L271.751 179.491C277.492 178.824 282.7 178.156 287.377 177.488L287.236 176.498ZM271.636 178.498L271.518 177.505C265.954 178.168 260.593 178.498 255.436 178.498V179.498V180.498C260.679 180.498 266.118 180.162 271.754 179.491L271.636 178.498ZM255.436 179.498V178.498C251.881 178.498 247.518 178.235 242.338 177.703L242.236 178.698L242.134 179.693C247.354 180.228 251.79 180.498 255.436 180.498V179.498ZM242.236 178.698L242.341 177.704C237.282 177.171 232.156 176.572 226.963 175.906L226.836 176.898L226.709 177.89C231.916 178.558 237.057 179.159 242.131 179.693L242.236 178.698ZM226.836 176.898L226.992 175.91C221.929 175.111 217.467 174.378 213.606 173.713L213.436 174.698L213.266 175.684C217.138 176.351 221.61 177.085 226.68 177.886L226.836 176.898ZM213.436 174.698H212.436V187.498H213.436H214.436V174.698H213.436ZM246.836 269.698V270.698H264.436V269.698V268.698H246.836V269.698ZM264.436 269.698L265.428 269.571C263.696 256.118 262.231 242.399 261.032 228.413L260.036 228.498L259.04 228.584C260.241 242.597 261.709 256.345 263.444 269.826L264.436 269.698ZM260.036 228.498L261.032 228.413C259.831 214.4 258.363 200.454 256.628 186.574L255.636 186.698L254.644 186.822C256.375 200.676 257.841 214.596 259.04 228.584L260.036 228.498ZM255.636 186.698L254.642 186.593L245.842 269.593L246.836 269.698L247.83 269.804L256.63 186.804L255.636 186.698Z" fill="#E7B233" mask="url(#path-18-outside-1_2003_11)"/>
<defs>
<clipPath id="clip0_2003_11">
<rect width="403.82" height="260.429" fill="white" transform="translate(54 212.069)"/>
</clipPath>
</defs>
</svg>
