<svg width="968" height="969" viewBox="0 0 968 969" fill="none" xmlns="http://www.w3.org/2000/svg">
<path d="M968 0H0V969H968V0Z" fill="#120E0B"/>
<mask id="mask0_3037_565" style="mask-type:luminance" maskUnits="userSpaceOnUse" x="282" y="440" width="404" height="261">
<path d="M685.82 440.069H282V700.498H685.82V440.069Z" fill="white"/>
</mask>
<g mask="url(#mask0_3037_565)">
<path d="M650.615 440.844H317.205C297.762 440.844 282 456.601 282 476.038V665.305C282 684.742 297.762 700.498 317.205 700.498H650.615C670.058 700.498 685.82 684.742 685.82 665.305V476.038C685.82 456.601 670.058 440.844 650.615 440.844Z" fill="#E7B233"/>
<mask id="mask1_3037_565" style="mask-type:luminance" maskUnits="userSpaceOnUse" x="302" y="471" width="364" height="199">
<path d="M665.099 471.073H302.239V669.495H665.099V471.073Z" fill="white"/>
</mask>
<g mask="url(#mask1_3037_565)">
<path d="M419.882 628.15C420.189 628.15 422.508 628.109 425.039 628.115C427.57 628.121 429.529 628.115 429.405 628.115C429.281 628.115 426.963 628.145 424.254 628.15C421.546 628.156 419.576 628.197 419.882 628.15Z" fill="#FDDC8F"/>
<path d="M420.118 628.15C420.687 628.099 421.259 628.083 421.829 628.103C422.75 628.103 423.458 628.103 423.405 628.133C423.175 628.185 420.089 628.197 420.118 628.133V628.15Z" fill="#FDDC8F"/>
<path d="M424.668 471.073H389.267C383.564 471.073 378.941 475.699 378.941 481.407V516.838C378.941 522.545 383.564 527.172 389.267 527.172H424.668C430.37 527.172 434.993 522.545 434.993 516.838V481.407C434.993 475.699 430.37 471.073 424.668 471.073Z" fill="#FDDC8F"/>
<path d="M501.37 471.073H465.969C460.266 471.073 455.643 475.699 455.643 481.407V516.838C455.643 522.545 460.266 527.172 465.969 527.172H501.37C507.072 527.172 511.695 522.545 511.695 516.838V481.407C511.695 475.699 507.072 471.073 501.37 471.073Z" fill="#FDDC8F"/>
<path d="M578.072 471.073H542.671C536.968 471.073 532.346 475.699 532.346 481.407V516.838C532.346 522.545 536.968 527.172 542.671 527.172H578.072C583.774 527.172 588.397 522.545 588.397 516.838V481.407C588.397 475.699 583.774 471.073 578.072 471.073Z" fill="#FDDC8F"/>
<path d="M424.668 547.84H389.267C383.564 547.84 378.941 552.466 378.941 558.174V593.605C378.941 599.313 383.564 603.939 389.267 603.939H424.668C430.37 603.939 434.993 599.313 434.993 593.605V558.174C434.993 552.466 430.37 547.84 424.668 547.84Z" fill="#FDDC8F"/>
<path d="M501.37 547.84H465.969C460.266 547.84 455.643 552.466 455.643 558.174V593.605C455.643 599.313 460.266 603.939 465.969 603.939H501.37C507.072 603.939 511.695 599.313 511.695 593.605V558.174C511.695 552.466 507.072 547.84 501.37 547.84Z" fill="#FDDC8F"/>
<path d="M578.072 547.84H542.671C536.968 547.84 532.346 552.466 532.346 558.174V593.605C532.346 599.313 536.968 603.939 542.671 603.939H578.072C583.774 603.939 588.397 599.313 588.397 593.605V558.174C588.397 552.466 583.774 547.84 578.072 547.84Z" fill="#FDDC8F"/>
<path d="M347.966 471.073H312.564C306.862 471.073 302.239 475.699 302.239 481.407V516.838C302.239 522.545 306.862 527.172 312.564 527.172H347.966C353.668 527.172 358.291 522.545 358.291 516.838V481.407C358.291 475.699 353.668 471.073 347.966 471.073Z" fill="#FDDC8F"/>
<path d="M654.774 471.073H619.373C613.67 471.073 609.048 475.699 609.048 481.407V516.838C609.048 522.545 613.67 527.172 619.373 527.172H654.774C660.476 527.172 665.099 522.545 665.099 516.838V481.407C665.099 475.699 660.476 471.073 654.774 471.073Z" fill="#FDDC8F"/>
<path d="M347.966 547.84H312.564C306.862 547.84 302.239 552.466 302.239 558.174V593.605C302.239 599.313 306.862 603.939 312.564 603.939H347.966C353.668 603.939 358.291 599.313 358.291 593.605V558.174C358.291 552.466 353.668 547.84 347.966 547.84Z" fill="#FDDC8F"/>
<path d="M654.774 547.84H619.373C613.67 547.84 609.048 552.466 609.048 558.174V593.605C609.048 599.313 613.67 603.939 619.373 603.939H654.774C660.476 603.939 665.099 599.313 665.099 593.605V558.174C665.099 552.466 660.476 547.84 654.774 547.84Z" fill="#FDDC8F"/>
</g>
<path d="M588.601 624.299H379.219C376.421 624.299 374.154 626.962 374.154 630.248V663.395C374.154 666.68 376.421 669.344 379.219 669.344H588.601C591.399 669.344 593.666 666.68 593.666 663.395V630.248C593.666 626.962 591.399 624.299 588.601 624.299Z" fill="#FDDC8F"/>
</g>
<path fill-rule="evenodd" clip-rule="evenodd" d="M381.779 483.086L483.534 570.461L483.598 570.516L483.158 570.346L584.531 482.971C598.79 471.268 602.517 465.794 602.534 451.54V299.578C602.266 279.951 591.87 268.665 572.969 268H394.228C375.327 268.665 364.427 280.066 364.159 299.693L364.281 451.54C364.298 465.794 367.519 471.383 381.779 483.086Z" fill="#F2F2F2"/>
<path d="M470.236 501.498L479.436 414.698C472.769 414.831 465.636 415.498 458.036 416.698C450.569 417.898 443.769 419.031 437.636 420.098V397.898C440.703 398.431 444.436 399.098 448.836 399.898C453.236 400.698 457.769 401.431 462.436 402.098C467.236 402.631 471.703 403.031 475.836 403.298C474.503 401.031 472.569 397.765 470.036 393.498C467.503 389.231 464.769 384.365 461.836 378.898C458.903 373.432 456.103 367.765 453.436 361.898C450.769 355.898 448.569 350.098 446.836 344.498C445.236 338.765 444.436 333.565 444.436 328.898C444.436 320.498 446.303 313.765 450.036 308.698C453.769 303.632 458.636 300.032 464.636 297.898C470.636 295.632 476.969 294.498 483.636 294.498C490.303 294.498 496.569 295.632 502.436 297.898C508.436 300.032 513.303 303.632 517.036 308.698C520.903 313.765 522.836 320.498 522.836 328.898C522.836 333.565 521.969 338.765 520.236 344.498C518.503 350.098 516.303 355.898 513.636 361.898C511.103 367.765 508.369 373.432 505.436 378.898C502.503 384.365 499.769 389.231 497.236 393.498C494.703 397.765 492.703 401.031 491.236 403.298C495.503 403.031 499.969 402.631 504.636 402.098C509.436 401.431 514.036 400.698 518.436 399.898C522.836 399.098 526.503 398.431 529.436 397.898V420.298C523.169 419.098 516.303 417.898 508.836 416.698C501.369 415.498 494.303 414.831 487.636 414.698L496.836 501.498H470.236ZM480.636 403.498H486.236C484.369 400.031 482.103 395.898 479.436 391.098C476.769 386.165 473.969 380.898 471.036 375.298C468.236 369.698 465.569 364.098 463.036 358.498C460.503 352.765 458.436 347.365 456.836 342.298C455.236 337.098 454.436 332.631 454.436 328.898C454.436 322.632 455.969 317.765 459.036 314.298C462.236 310.698 466.103 308.165 470.636 306.698C475.169 305.232 479.503 304.498 483.636 304.498C487.769 304.498 492.036 305.232 496.436 306.698C500.969 308.165 504.836 310.698 508.036 314.298C511.236 317.765 512.836 322.632 512.836 328.898C512.836 332.898 511.903 337.698 510.036 343.298C508.303 348.765 506.036 354.565 503.236 360.698C500.436 366.698 497.503 372.631 494.436 378.498C491.369 384.365 488.503 389.698 485.836 394.498L488.836 399.698C490.303 397.165 492.236 393.831 494.636 389.698C497.169 385.431 499.836 380.698 502.636 375.498C505.436 370.165 508.036 364.698 510.436 359.098C512.969 353.498 514.969 348.098 516.436 342.898C518.036 337.698 518.836 333.031 518.836 328.898C518.836 321.432 517.169 315.498 513.836 311.098C510.503 306.698 506.103 303.498 500.636 301.498C495.303 299.498 489.636 298.498 483.636 298.498C477.636 298.498 471.969 299.498 466.636 301.498C461.303 303.498 456.903 306.698 453.436 311.098C450.103 315.498 448.436 321.432 448.436 328.898C448.436 333.698 449.503 339.298 451.636 345.698C453.769 351.965 456.369 358.431 459.436 365.098C462.636 371.631 465.769 377.765 468.836 383.498C472.036 389.231 474.769 393.965 477.036 397.698C479.303 401.298 480.503 403.232 480.636 403.498ZM483.636 390.498C486.303 385.565 489.103 380.231 492.036 374.498C494.969 368.765 497.703 363.031 500.236 357.298C502.769 351.565 504.836 346.231 506.436 341.298C508.036 336.365 508.836 332.231 508.836 328.898C508.836 323.565 507.436 319.432 504.636 316.498C501.969 313.565 498.703 311.498 494.836 310.298C490.969 308.965 487.236 308.298 483.636 308.298C480.036 308.298 476.236 308.965 472.236 310.298C468.369 311.498 465.036 313.565 462.236 316.498C459.569 319.432 458.236 323.565 458.236 328.898C458.236 332.231 459.036 336.365 460.636 341.298C462.236 346.231 464.303 351.565 466.836 357.298C469.369 363.031 472.103 368.765 475.036 374.498C478.103 380.231 480.969 385.565 483.636 390.498ZM441.436 415.498C444.369 414.965 448.103 414.365 452.636 413.698C457.303 412.898 462.303 412.231 467.636 411.698C473.103 411.031 478.369 410.698 483.436 410.698C488.503 410.698 493.703 411.031 499.036 411.698C504.503 412.231 509.569 412.898 514.236 413.698C518.903 414.365 522.636 414.965 525.436 415.498V402.698C523.303 403.098 519.903 403.698 515.236 404.498C510.569 405.165 505.369 405.831 499.636 406.498C494.036 407.165 488.636 407.498 483.436 407.498C479.836 407.498 475.436 407.231 470.236 406.698C465.169 406.165 460.036 405.565 454.836 404.898C449.769 404.098 445.303 403.365 441.436 402.698V415.498ZM474.836 497.698H492.436C490.703 484.232 489.236 470.498 488.036 456.498C486.836 442.498 485.369 428.565 483.636 414.698L474.836 497.698Z" fill="#E7B233"/>
<mask id="mask2_3037_565" style="mask-type:luminance" maskUnits="userSpaceOnUse" x="436" y="293" width="95" height="210">
<path d="M531 293.498H436V502.498H531V293.498Z" fill="white"/>
<path d="M470.236 501.498L479.436 414.698C472.769 414.831 465.636 415.498 458.036 416.698C450.569 417.898 443.769 419.031 437.636 420.098V397.898C440.703 398.431 444.436 399.098 448.836 399.898C453.236 400.698 457.769 401.431 462.436 402.098C467.236 402.631 471.703 403.031 475.836 403.298C474.503 401.031 472.569 397.765 470.036 393.498C467.503 389.231 464.769 384.365 461.836 378.898C458.903 373.432 456.103 367.765 453.436 361.898C450.769 355.898 448.569 350.098 446.836 344.498C445.236 338.765 444.436 333.565 444.436 328.898C444.436 320.498 446.303 313.765 450.036 308.698C453.769 303.632 458.636 300.032 464.636 297.898C470.636 295.632 476.969 294.498 483.636 294.498C490.303 294.498 496.569 295.632 502.436 297.898C508.436 300.032 513.303 303.632 517.036 308.698C520.903 313.765 522.836 320.498 522.836 328.898C522.836 333.565 521.969 338.765 520.236 344.498C518.503 350.098 516.303 355.898 513.636 361.898C511.103 367.765 508.369 373.432 505.436 378.898C502.503 384.365 499.769 389.231 497.236 393.498C494.703 397.765 492.703 401.031 491.236 403.298C495.503 403.031 499.969 402.631 504.636 402.098C509.436 401.431 514.036 400.698 518.436 399.898C522.836 399.098 526.503 398.431 529.436 397.898V420.298C523.169 419.098 516.303 417.898 508.836 416.698C501.369 415.498 494.303 414.831 487.636 414.698L496.836 501.498H470.236ZM480.636 403.498H486.236C484.369 400.031 482.103 395.898 479.436 391.098C476.769 386.165 473.969 380.898 471.036 375.298C468.236 369.698 465.569 364.098 463.036 358.498C460.503 352.765 458.436 347.365 456.836 342.298C455.236 337.098 454.436 332.631 454.436 328.898C454.436 322.632 455.969 317.765 459.036 314.298C462.236 310.698 466.103 308.165 470.636 306.698C475.169 305.232 479.503 304.498 483.636 304.498C487.769 304.498 492.036 305.232 496.436 306.698C500.969 308.165 504.836 310.698 508.036 314.298C511.236 317.765 512.836 322.632 512.836 328.898C512.836 332.898 511.903 337.698 510.036 343.298C508.303 348.765 506.036 354.565 503.236 360.698C500.436 366.698 497.503 372.631 494.436 378.498C491.369 384.365 488.503 389.698 485.836 394.498L488.836 399.698C490.303 397.165 492.236 393.831 494.636 389.698C497.169 385.431 499.836 380.698 502.636 375.498C505.436 370.165 508.036 364.698 510.436 359.098C512.969 353.498 514.969 348.098 516.436 342.898C518.036 337.698 518.836 333.031 518.836 328.898C518.836 321.432 517.169 315.498 513.836 311.098C510.503 306.698 506.103 303.498 500.636 301.498C495.303 299.498 489.636 298.498 483.636 298.498C477.636 298.498 471.969 299.498 466.636 301.498C461.303 303.498 456.903 306.698 453.436 311.098C450.103 315.498 448.436 321.432 448.436 328.898C448.436 333.698 449.503 339.298 451.636 345.698C453.769 351.965 456.369 358.431 459.436 365.098C462.636 371.631 465.769 377.765 468.836 383.498C472.036 389.231 474.769 393.965 477.036 397.698C479.303 401.298 480.503 403.232 480.636 403.498ZM483.636 390.498C486.303 385.565 489.103 380.231 492.036 374.498C494.969 368.765 497.703 363.031 500.236 357.298C502.769 351.565 504.836 346.231 506.436 341.298C508.036 336.365 508.836 332.231 508.836 328.898C508.836 323.565 507.436 319.432 504.636 316.498C501.969 313.565 498.703 311.498 494.836 310.298C490.969 308.965 487.236 308.298 483.636 308.298C480.036 308.298 476.236 308.965 472.236 310.298C468.369 311.498 465.036 313.565 462.236 316.498C459.569 319.432 458.236 323.565 458.236 328.898C458.236 332.231 459.036 336.365 460.636 341.298C462.236 346.231 464.303 351.565 466.836 357.298C469.369 363.031 472.103 368.765 475.036 374.498C478.103 380.231 480.969 385.565 483.636 390.498ZM441.436 415.498C444.369 414.965 448.103 414.365 452.636 413.698C457.303 412.898 462.303 412.231 467.636 411.698C473.103 411.031 478.369 410.698 483.436 410.698C488.503 410.698 493.703 411.031 499.036 411.698C504.503 412.231 509.569 412.898 514.236 413.698C518.903 414.365 522.636 414.965 525.436 415.498V402.698C523.303 403.098 519.903 403.698 515.236 404.498C510.569 405.165 505.369 405.831 499.636 406.498C494.036 407.165 488.636 407.498 483.436 407.498C479.836 407.498 475.436 407.231 470.236 406.698C465.169 406.165 460.036 405.565 454.836 404.898C449.769 404.098 445.303 403.365 441.436 402.698V415.498ZM474.836 497.698H492.436C490.703 484.232 489.236 470.498 488.036 456.498C486.836 442.498 485.369 428.565 483.636 414.698L474.836 497.698Z" fill="black"/>
</mask>
<g mask="url(#mask2_3037_565)">
<path d="M470.236 501.498L469.242 501.393L469.124 502.498H470.236V501.498ZM479.436 414.698L480.43 414.804L480.55 413.676L479.416 413.698L479.436 414.698ZM458.036 416.698L457.88 415.71L457.877 415.711L458.036 416.698ZM437.636 420.098H436.636V421.287L437.807 421.083L437.636 420.098ZM437.636 397.898L437.807 396.913L436.636 396.709V397.898H437.636ZM462.436 402.098L462.295 403.088L462.31 403.09L462.326 403.092L462.436 402.098ZM475.836 403.298L475.772 404.296L477.655 404.418L476.698 402.791L475.836 403.298ZM453.436 361.898L452.522 362.304L452.526 362.312L453.436 361.898ZM446.836 344.498L445.873 344.767L445.877 344.78L445.881 344.794L446.836 344.498ZM464.636 297.898L464.971 298.84L464.98 298.837L464.989 298.834L464.636 297.898ZM502.436 297.898L502.076 298.831L502.088 298.836L502.101 298.84L502.436 297.898ZM517.036 308.698L516.231 309.291L516.236 309.298L516.241 309.305L517.036 308.698ZM520.236 344.498L521.191 344.794L521.193 344.788L520.236 344.498ZM513.636 361.898L512.722 361.492L512.718 361.502L513.636 361.898ZM491.236 403.298L490.396 402.755L489.319 404.42L491.298 404.296L491.236 403.298ZM504.636 402.098L504.749 403.092L504.762 403.09L504.774 403.089L504.636 402.098ZM529.436 397.898H530.436V396.7L529.257 396.914L529.436 397.898ZM529.436 420.298L529.248 421.28L530.436 421.508V420.298H529.436ZM487.636 414.698L487.656 413.698L486.522 413.676L486.642 414.804L487.636 414.698ZM496.836 501.498V502.498H497.948L497.83 501.393L496.836 501.498ZM480.636 403.498L479.742 403.945L480.018 404.498H480.636V403.498ZM486.236 403.498V404.498H487.91L487.116 403.024L486.236 403.498ZM479.436 391.098L478.556 391.574L478.562 391.584L479.436 391.098ZM471.036 375.298L470.142 375.745L470.146 375.754L470.15 375.762L471.036 375.298ZM463.036 358.498L462.121 358.902L462.125 358.91L463.036 358.498ZM456.836 342.298L455.88 342.592L455.882 342.599L456.836 342.298ZM459.036 314.298L458.289 313.634L458.287 313.636L459.036 314.298ZM496.436 306.698L496.12 307.647L496.128 307.65L496.436 306.698ZM508.036 314.298L507.289 314.963L507.295 314.97L507.301 314.976L508.036 314.298ZM510.036 343.298L509.087 342.982L509.085 342.989L509.083 342.996L510.036 343.298ZM503.236 360.698L504.142 361.121L504.146 361.113L503.236 360.698ZM485.836 394.498L484.962 394.013L484.687 394.507L484.97 394.998L485.836 394.498ZM488.836 399.698L487.97 400.198L488.834 401.697L489.701 400.199L488.836 399.698ZM494.636 389.698L493.776 389.188L493.771 389.196L494.636 389.698ZM502.636 375.498L503.516 375.972L503.521 375.963L502.636 375.498ZM510.436 359.098L509.525 358.686L509.521 358.695L509.517 358.704L510.436 359.098ZM516.436 342.898L515.48 342.604L515.477 342.615L515.473 342.627L516.436 342.898ZM500.636 301.498L500.285 302.435L500.292 302.437L500.636 301.498ZM453.436 311.098L452.65 310.479L452.645 310.487L452.639 310.494L453.436 311.098ZM451.636 345.698L450.687 346.014L450.689 346.02L451.636 345.698ZM459.436 365.098L458.527 365.516L458.533 365.527L458.538 365.538L459.436 365.098ZM468.836 383.498L467.954 383.97L467.958 383.978L467.963 383.986L468.836 383.498ZM477.036 397.698L476.181 398.217L476.185 398.224L476.19 398.231L477.036 397.698ZM483.636 390.498L482.756 390.974L483.636 392.601L484.516 390.974L483.636 390.498ZM504.636 316.498L503.896 317.171L503.904 317.18L503.913 317.189L504.636 316.498ZM494.836 310.298L494.51 311.244L494.525 311.249L494.54 311.253L494.836 310.298ZM472.236 310.298L472.532 311.253L472.542 311.25L472.552 311.247L472.236 310.298ZM462.236 316.498L461.513 315.808L461.504 315.817L461.496 315.826L462.236 316.498ZM475.036 374.498L474.146 374.954L474.15 374.962L474.154 374.97L475.036 374.498ZM441.436 415.498H440.436V416.696L441.615 416.482L441.436 415.498ZM452.636 413.698L452.781 414.688L452.793 414.686L452.805 414.684L452.636 413.698ZM467.636 411.698L467.735 412.693L467.746 412.692L467.757 412.691L467.636 411.698ZM499.036 411.698L498.912 412.69L498.925 412.692L498.939 412.693L499.036 411.698ZM514.236 413.698L514.067 414.684L514.081 414.686L514.095 414.688L514.236 413.698ZM525.436 415.498L525.249 416.481L526.436 416.707V415.498H525.436ZM525.436 402.698H526.436V401.493L525.252 401.715L525.436 402.698ZM515.236 404.498L515.377 405.488L515.391 405.486L515.405 405.484L515.236 404.498ZM499.636 406.498L499.52 405.505H499.518L499.636 406.498ZM470.236 406.698L470.131 407.693H470.134L470.236 406.698ZM454.836 404.898L454.68 405.886L454.694 405.888L454.709 405.89L454.836 404.898ZM441.436 402.698L441.606 401.713L440.436 401.511V402.698H441.436ZM474.836 497.698L473.842 497.593L473.724 498.698H474.836V497.698ZM492.436 497.698V498.698H493.573L493.428 497.571L492.436 497.698ZM483.636 414.698L484.628 414.574L482.642 414.593L483.636 414.698ZM470.236 501.498L471.23 501.604L480.43 414.804L479.436 414.698L478.442 414.593L469.242 501.393L470.236 501.498ZM479.436 414.698L479.416 413.698C472.697 413.833 465.518 414.504 457.88 415.71L458.036 416.698L458.192 417.686C465.754 416.492 472.841 415.83 479.456 415.698L479.436 414.698ZM458.036 416.698L457.877 415.711C450.407 416.911 443.603 418.045 437.465 419.113L437.636 420.098L437.807 421.083C443.936 420.018 450.731 418.885 458.195 417.685L458.036 416.698ZM437.636 420.098H438.636V397.898H437.636H436.636V420.098H437.636ZM437.636 397.898L437.465 398.883C440.528 399.416 444.259 400.082 448.657 400.882L448.836 399.898L449.015 398.914C444.613 398.114 440.877 397.447 437.807 396.913L437.636 397.898ZM448.836 399.898L448.657 400.882C453.07 401.684 457.616 402.42 462.295 403.088L462.436 402.098L462.577 401.108C457.923 400.443 453.402 399.712 449.015 398.914L448.836 399.898ZM462.436 402.098L462.326 403.092C467.138 403.627 471.621 404.028 475.772 404.296L475.836 403.298L475.9 402.3C471.785 402.035 467.333 401.636 462.546 401.104L462.436 402.098ZM475.836 403.298L476.698 402.791C475.363 400.523 473.429 397.255 470.896 392.988L470.036 393.498L469.176 394.009C471.709 398.275 473.642 401.54 474.974 403.805L475.836 403.298ZM470.036 393.498L470.896 392.988C468.371 388.736 465.645 383.882 462.717 378.425L461.836 378.898L460.955 379.371C463.893 384.847 466.634 389.727 469.176 394.009L470.036 393.498ZM461.836 378.898L462.717 378.425C459.795 372.979 457.004 367.332 454.346 361.484L453.436 361.898L452.526 362.312C455.201 368.198 458.011 373.884 460.955 379.371L461.836 378.898ZM453.436 361.898L454.35 361.492C451.697 355.524 449.512 349.761 447.791 344.202L446.836 344.498L445.881 344.794C447.627 350.436 449.841 356.273 452.522 362.304L453.436 361.898ZM446.836 344.498L447.799 344.229C446.217 338.561 445.436 333.453 445.436 328.898H444.436H443.436C443.436 333.677 444.255 338.969 445.873 344.767L446.836 344.498ZM444.436 328.898H445.436C445.436 320.641 447.271 314.137 450.841 309.291L450.036 308.698L449.231 308.105C445.335 313.393 443.436 320.356 443.436 328.898H444.436ZM450.036 308.698L450.841 309.291C454.454 304.387 459.157 300.908 464.971 298.84L464.636 297.898L464.301 296.956C458.115 299.155 453.084 302.876 449.231 308.105L450.036 308.698ZM464.636 297.898L464.989 298.834C470.872 296.611 477.085 295.498 483.636 295.498V294.498V293.498C476.853 293.498 470.4 294.652 464.283 296.963L464.636 297.898ZM483.636 294.498V295.498C490.187 295.498 496.331 296.611 502.076 298.831L502.436 297.898L502.796 296.965C496.808 294.652 490.418 293.498 483.636 293.498V294.498ZM502.436 297.898L502.101 298.84C507.915 300.908 512.617 304.387 516.231 309.291L517.036 308.698L517.841 308.105C513.988 302.876 508.957 299.155 502.771 296.956L502.436 297.898ZM517.036 308.698L516.241 309.305C519.938 314.149 521.836 320.648 521.836 328.898H522.836H523.836C523.836 320.349 521.867 313.381 517.831 308.092L517.036 308.698ZM522.836 328.898H521.836C521.836 333.444 520.991 338.544 519.279 344.209L520.236 344.498L521.193 344.788C522.947 338.986 523.836 333.686 523.836 328.898H522.836ZM520.236 344.498L519.281 344.202C517.56 349.761 515.375 355.524 512.722 361.492L513.636 361.898L514.55 362.304C517.231 356.273 519.445 350.436 521.191 344.794L520.236 344.498ZM513.636 361.898L512.718 361.502C510.195 367.343 507.474 372.984 504.555 378.425L505.436 378.898L506.317 379.371C509.264 373.879 512.01 368.186 514.554 362.295L513.636 361.898ZM505.436 378.898L504.555 378.425C501.627 383.882 498.9 388.736 496.376 392.988L497.236 393.498L498.096 394.009C500.638 389.727 503.379 384.847 506.317 379.371L505.436 378.898ZM497.236 393.498L496.376 392.988C493.845 397.251 491.853 400.504 490.396 402.755L491.236 403.298L492.076 403.841C493.553 401.559 495.56 398.279 498.096 394.009L497.236 393.498ZM491.236 403.298L491.298 404.296C495.584 404.028 500.067 403.627 504.749 403.092L504.636 402.098L504.522 401.105C499.871 401.636 495.422 402.035 491.174 402.3L491.236 403.298ZM504.636 402.098L504.774 403.089C509.586 402.42 514.2 401.685 518.615 400.882L518.436 399.898L518.257 398.914C513.872 399.712 509.286 400.443 504.498 401.108L504.636 402.098ZM518.436 399.898L518.615 400.882C523.015 400.082 526.681 399.415 529.615 398.882L529.436 397.898L529.257 396.914C526.324 397.448 522.657 398.114 518.257 398.914L518.436 399.898ZM529.436 397.898H528.436V420.298H529.436H530.436V397.898H529.436ZM529.436 420.298L529.624 419.316C523.346 418.114 516.469 416.912 508.995 415.711L508.836 416.698L508.677 417.685C516.136 418.884 522.993 420.082 529.248 421.28L529.436 420.298ZM508.836 416.698L508.995 415.711C501.488 414.504 494.375 413.833 487.656 413.698L487.636 414.698L487.616 415.698C494.23 415.83 501.251 416.492 508.677 417.685L508.836 416.698ZM487.636 414.698L486.642 414.804L495.842 501.604L496.836 501.498L497.83 501.393L488.63 414.593L487.636 414.698ZM496.836 501.498V500.498H470.236V501.498V502.498H496.836V501.498ZM480.636 403.498V404.498H486.236V403.498V402.498H480.636V403.498ZM486.236 403.498L487.116 403.024C485.247 399.552 482.978 395.415 480.31 390.613L479.436 391.098L478.562 391.584C481.227 396.381 483.492 400.511 485.355 403.972L486.236 403.498ZM479.436 391.098L480.316 390.623C477.651 385.694 474.853 380.431 471.922 374.834L471.036 375.298L470.15 375.762C473.085 381.366 475.887 386.636 478.556 391.574L479.436 391.098ZM471.036 375.298L471.93 374.851C469.136 369.262 466.475 363.674 463.947 358.086L463.036 358.498L462.125 358.91C464.664 364.522 467.336 370.134 470.142 375.745L471.036 375.298ZM463.036 358.498L463.951 358.094C461.43 352.388 459.377 347.023 457.79 341.997L456.836 342.298L455.882 342.599C457.495 347.707 459.576 353.141 462.121 358.902L463.036 358.498ZM456.836 342.298L457.792 342.004C456.209 336.86 455.436 332.498 455.436 328.898H454.436H453.436C453.436 332.765 454.263 337.336 455.88 342.592L456.836 342.298ZM454.436 328.898H455.436C455.436 322.788 456.93 318.188 459.785 314.961L459.036 314.298L458.287 313.636C455.009 317.341 453.436 322.475 453.436 328.898H454.436ZM459.036 314.298L459.783 314.963C462.866 311.494 466.582 309.061 470.944 307.65L470.636 306.698L470.328 305.747C465.623 307.269 461.606 309.902 458.289 313.634L459.036 314.298ZM470.636 306.698L470.944 307.65C475.393 306.21 479.622 305.498 483.636 305.498V304.498V303.498C479.384 303.498 474.946 304.253 470.328 305.747L470.636 306.698ZM483.636 304.498V305.498C487.65 305.498 491.809 306.21 496.12 307.647L496.436 306.698L496.752 305.75C492.263 304.253 487.889 303.498 483.636 303.498V304.498ZM496.436 306.698L496.128 307.65C500.49 309.061 504.206 311.494 507.289 314.963L508.036 314.298L508.783 313.634C505.466 309.902 501.449 307.269 496.744 305.747L496.436 306.698ZM508.036 314.298L507.301 314.976C510.281 318.205 511.836 322.799 511.836 328.898H512.836H513.836C513.836 322.465 512.191 317.325 508.771 313.62L508.036 314.298ZM512.836 328.898H511.836C511.836 332.753 510.935 337.44 509.087 342.982L510.036 343.298L510.985 343.614C512.871 337.956 513.836 333.044 513.836 328.898H512.836ZM510.036 343.298L509.083 342.996C507.363 348.418 505.112 354.18 502.326 360.283L503.236 360.698L504.146 361.113C506.96 354.95 509.242 349.112 510.989 343.6L510.036 343.298ZM503.236 360.698L502.33 360.275C499.536 366.262 496.609 372.182 493.55 378.035L494.436 378.498L495.322 378.961C498.396 373.081 501.336 367.135 504.142 361.121L503.236 360.698ZM494.436 378.498L493.55 378.035C490.486 383.896 487.624 389.221 484.962 394.013L485.836 394.498L486.71 394.984C489.382 390.175 492.252 384.834 495.322 378.961L494.436 378.498ZM485.836 394.498L484.97 394.998L487.97 400.198L488.836 399.698L489.702 399.198L486.702 393.998L485.836 394.498ZM488.836 399.698L489.701 400.199C491.168 397.666 493.101 394.333 495.501 390.2L494.636 389.698L493.771 389.196C491.371 393.33 489.437 396.663 487.971 399.197L488.836 399.698ZM494.636 389.698L495.496 390.209C498.037 385.928 500.711 381.182 503.516 375.972L502.636 375.498L501.755 375.024C498.961 380.214 496.301 384.935 493.776 389.188L494.636 389.698ZM502.636 375.498L503.521 375.963C506.334 370.606 508.945 365.116 511.355 359.492L510.436 359.098L509.517 358.704C507.127 364.28 504.538 369.723 501.751 375.033L502.636 375.498ZM510.436 359.098L511.347 359.51C513.898 353.871 515.916 348.424 517.398 343.17L516.436 342.898L515.473 342.627C514.022 347.773 512.04 353.125 509.525 358.686L510.436 359.098ZM516.436 342.898L517.392 343.192C519.012 337.925 519.836 333.157 519.836 328.898H518.836H517.836C517.836 332.906 517.06 337.471 515.48 342.604L516.436 342.898ZM518.836 328.898H519.836C519.836 321.29 518.138 315.12 514.633 310.494L513.836 311.098L513.039 311.702C516.201 315.876 517.836 321.574 517.836 328.898H518.836ZM513.836 311.098L514.633 310.494C511.177 305.933 506.616 302.621 500.98 300.559L500.636 301.498L500.292 302.437C505.589 304.375 509.828 307.464 513.039 311.702L513.836 311.098ZM500.636 301.498L500.987 300.562C495.536 298.518 489.749 297.498 483.636 297.498V298.498V299.498C489.522 299.498 495.07 300.479 500.285 302.435L500.636 301.498ZM483.636 298.498V297.498C477.522 297.498 471.736 298.518 466.285 300.562L466.636 301.498L466.987 302.435C472.202 300.479 477.749 299.498 483.636 299.498V298.498ZM466.636 301.498L466.285 300.562C460.783 302.625 456.232 305.933 452.65 310.479L453.436 311.098L454.221 311.717C457.573 307.463 461.822 304.372 466.987 302.435L466.636 301.498ZM453.436 311.098L452.639 310.494C449.134 315.12 447.436 321.29 447.436 328.898H448.436H449.436C449.436 321.574 451.071 315.876 454.233 311.702L453.436 311.098ZM448.436 328.898H447.436C447.436 333.839 448.533 339.55 450.687 346.014L451.636 345.698L452.585 345.382C450.473 339.046 449.436 333.557 449.436 328.898H448.436ZM451.636 345.698L450.689 346.02C452.835 352.323 455.448 358.822 458.527 365.516L459.436 365.098L460.344 364.68C457.291 358.041 454.704 351.607 452.583 345.376L451.636 345.698ZM459.436 365.098L458.538 365.538C461.743 372.081 464.881 378.225 467.954 383.97L468.836 383.498L469.718 383.027C466.657 377.305 463.529 371.182 460.334 364.658L459.436 365.098ZM468.836 383.498L467.963 383.986C471.166 389.725 473.906 394.47 476.181 398.217L477.036 397.698L477.891 397.179C475.633 393.46 472.906 388.738 469.709 383.011L468.836 383.498ZM477.036 397.698L476.19 398.231C477.323 400.03 478.188 401.412 478.786 402.376C479.086 402.858 479.317 403.233 479.481 403.504C479.563 403.639 479.627 403.746 479.673 403.825C479.724 403.913 479.742 403.945 479.742 403.945L480.636 403.498L481.53 403.051C481.437 402.864 481.067 402.258 480.486 401.321C479.884 400.351 479.016 398.966 477.882 397.165L477.036 397.698ZM483.636 390.498L484.516 390.974C487.186 386.033 489.99 380.693 492.926 374.954L492.036 374.498L491.146 374.043C488.215 379.77 485.419 385.097 482.756 390.023L483.636 390.498ZM492.036 374.498L492.926 374.954C495.868 369.204 498.609 363.453 501.151 357.702L500.236 357.298L499.321 356.894C496.796 362.61 494.071 368.326 491.146 374.043L492.036 374.498ZM500.236 357.298L501.151 357.702C503.695 351.944 505.775 346.578 507.387 341.607L506.436 341.298L505.485 340.99C503.897 345.885 501.844 351.186 499.321 356.894L500.236 357.298ZM506.436 341.298L507.387 341.607C509.004 336.623 509.836 332.378 509.836 328.898H508.836H507.836C507.836 332.085 507.068 336.107 505.485 340.99L506.436 341.298ZM508.836 328.898H509.836C509.836 323.391 508.387 318.98 505.359 315.808L504.636 316.498L503.913 317.189C506.485 319.883 507.836 323.738 507.836 328.898H508.836ZM504.636 316.498L505.376 315.826C502.587 312.757 499.166 310.595 495.132 309.343L494.836 310.298L494.54 311.253C498.24 312.402 501.352 314.372 503.896 317.171L504.636 316.498ZM494.836 310.298L495.162 309.353C491.204 307.988 487.361 307.298 483.636 307.298V308.298V309.298C487.111 309.298 490.734 309.942 494.51 311.244L494.836 310.298ZM483.636 308.298V307.298C479.912 307.298 476.005 307.988 471.92 309.35L472.236 310.298L472.552 311.247C476.467 309.942 480.16 309.298 483.636 309.298V308.298ZM472.236 310.298L471.94 309.343C467.91 310.594 464.43 312.752 461.513 315.808L462.236 316.498L462.959 317.189C465.642 314.378 468.828 312.403 472.532 311.253L472.236 310.298ZM462.236 316.498L461.496 315.826C458.611 318.999 457.236 323.403 457.236 328.898H458.236H459.236C459.236 323.726 460.527 319.864 462.976 317.171L462.236 316.498ZM458.236 328.898H457.236C457.236 332.378 458.068 336.623 459.685 341.607L460.636 341.298L461.587 340.99C460.004 336.107 459.236 332.085 459.236 328.898H458.236ZM460.636 341.298L459.685 341.607C461.297 346.578 463.377 351.944 465.921 357.702L466.836 357.298L467.751 356.894C465.228 351.186 463.175 345.885 461.587 340.99L460.636 341.298ZM466.836 357.298L465.921 357.702C468.462 363.453 471.204 369.204 474.146 374.954L475.036 374.498L475.926 374.043C473.001 368.326 470.276 362.61 467.751 356.894L466.836 357.298ZM475.036 374.498L474.154 374.97C477.221 380.704 480.089 386.039 482.756 390.974L483.636 390.498L484.516 390.023C481.85 385.091 478.984 379.759 475.918 374.027L475.036 374.498ZM441.436 415.498L441.615 416.482C444.533 415.951 448.254 415.353 452.781 414.688L452.636 413.698L452.49 412.709C447.951 413.376 444.206 413.978 441.257 414.514L441.436 415.498ZM452.636 413.698L452.805 414.684C457.446 413.888 462.422 413.225 467.735 412.693L467.636 411.698L467.536 410.703C462.183 411.238 457.159 411.908 452.467 412.713L452.636 413.698ZM467.636 411.698L467.757 412.691C473.187 412.029 478.413 411.698 483.436 411.698V410.698V409.698C478.326 409.698 473.018 410.034 467.515 410.706L467.636 411.698ZM483.436 410.698V411.698C488.459 411.698 493.617 412.029 498.912 412.69L499.036 411.698L499.16 410.706C493.788 410.034 488.546 409.698 483.436 409.698V410.698ZM499.036 411.698L498.939 412.693C504.385 413.225 509.428 413.888 514.067 414.684L514.236 413.698L514.405 412.713C509.711 411.908 504.62 411.238 499.133 410.703L499.036 411.698ZM514.236 413.698L514.095 414.688C518.754 415.354 522.471 415.951 525.249 416.481L525.436 415.498L525.623 414.516C522.801 413.978 519.051 413.376 514.377 412.708L514.236 413.698ZM525.436 415.498H526.436V402.698H525.436H524.436V415.498H525.436ZM525.436 402.698L525.252 401.715C523.127 402.114 519.733 402.713 515.067 403.513L515.236 404.498L515.405 405.484C520.072 404.684 523.479 404.083 525.62 403.681L525.436 402.698ZM515.236 404.498L515.095 403.508C510.438 404.173 505.247 404.839 499.52 405.505L499.636 406.498L499.751 407.491C505.492 406.824 510.7 406.156 515.377 405.488L515.236 404.498ZM499.636 406.498L499.518 405.505C493.954 406.168 488.593 406.498 483.436 406.498V407.498V408.498C488.679 408.498 494.118 408.162 499.754 407.491L499.636 406.498ZM483.436 407.498V406.498C479.881 406.498 475.518 406.235 470.338 405.703L470.236 406.698L470.134 407.693C475.354 408.228 479.79 408.498 483.436 408.498V407.498ZM470.236 406.698L470.341 405.704C465.282 405.171 460.156 404.572 454.963 403.906L454.836 404.898L454.709 405.89C459.916 406.558 465.057 407.159 470.131 407.693L470.236 406.698ZM454.836 404.898L454.992 403.91C449.929 403.111 445.467 402.378 441.606 401.713L441.436 402.698L441.266 403.684C445.138 404.351 449.61 405.085 454.68 405.886L454.836 404.898ZM441.436 402.698H440.436V415.498H441.436H442.436V402.698H441.436ZM474.836 497.698V498.698H492.436V497.698V496.698H474.836V497.698ZM492.436 497.698L493.428 497.571C491.696 484.118 490.231 470.399 489.032 456.413L488.036 456.498L487.04 456.584C488.241 470.597 489.709 484.345 491.444 497.826L492.436 497.698ZM488.036 456.498L489.032 456.413C487.831 442.4 486.363 428.454 484.628 414.574L483.636 414.698L482.644 414.822C484.375 428.676 485.841 442.596 487.04 456.584L488.036 456.498ZM483.636 414.698L482.642 414.593L473.842 497.593L474.836 497.698L475.83 497.804L484.63 414.804L483.636 414.698Z" fill="#E7B233"/>
</g>
</svg>
