<?xml version="1.0" encoding="UTF-8" standalone="no"?>
<!-- Created with Inkscape (http://www.inkscape.org/) -->

<svg
   xmlns:dc="http://purl.org/dc/elements/1.1/"
   xmlns:cc="http://creativecommons.org/ns#"
   xmlns:rdf="http://www.w3.org/1999/02/22-rdf-syntax-ns#"
   xmlns:svg="http://www.w3.org/2000/svg"
   xmlns="http://www.w3.org/2000/svg"
   xmlns:sodipodi="http://sodipodi.sourceforge.net/DTD/sodipodi-0.dtd"
   xmlns:inkscape="http://www.inkscape.org/namespaces/inkscape"
   width="900"
   height="900"
   viewBox="0 0 238.125 238.125"
   version="1.1"
   id="svg5"
   inkscape:version="0.92.5 (2060ec1f9f, 2020-04-08)"
   sodipodi:docname="icon.svg"
   inkscape:export-filename="/home/rkr/Downloads/ic_launcher-v3/icon.png"
   inkscape:export-xdpi="77.40464"
   inkscape:export-ydpi="77.40464">
  <metadata
     id="metadata4069">
    <rdf:RDF>
      <cc:Work
         rdf:about="">
        <dc:format>image/svg+xml</dc:format>
        <dc:type
           rdf:resource="http://purl.org/dc/dcmitype/StillImage" />
        <dc:title />
      </cc:Work>
    </rdf:RDF>
  </metadata>
  <sodipodi:namedview
     id="namedview7"
     pagecolor="#505050"
     bordercolor="#ffffff"
     borderopacity="1"
     inkscape:pageshadow="0"
     inkscape:pageopacity="0"
     inkscape:pagecheckerboard="1"
     inkscape:document-units="px"
     showgrid="false"
     inkscape:snap-object-midpoints="false"
     inkscape:snap-midpoints="false"
     inkscape:zoom="0.89726539"
     inkscape:cx="324.96688"
     inkscape:cy="440.88965"
     inkscape:window-width="2240"
     inkscape:window-height="1110"
     inkscape:window-x="1402"
     inkscape:window-y="20"
     inkscape:window-maximized="0"
     inkscape:current-layer="layer1">
    <inkscape:grid
       type="xygrid"
       id="grid785"
       originx="-117.39703"
       originy="-25.039162" />
  </sodipodi:namedview>
  <defs
     id="defs2" />
  <g
     inkscape:label="Слой 1"
     inkscape:groupmode="layer"
     id="layer1"
     transform="translate(-117.39703,-25.039162)">
    <rect
       style="fill:#5796ff;fill-opacity:1;stroke-width:0.392452"
       id="rect6020"
       width="168.01044"
       height="68.053513"
       x="152.40001"
       y="57.572506"
       rx="9.3022757"
       ry="9.5369101" />
    <text
       xml:space="preserve"
       style="font-style:normal;font-weight:normal;font-size:36.77280045px;line-height:1.25;font-family:sans-serif;fill:#000000;fill-opacity:1;stroke:none;stroke-width:0.35817599"
       x="173.14812"
       y="105.25275"
       id="text6024"><tspan
         sodipodi:role="line"
         id="tspan6022"
         style="font-style:normal;font-variant:normal;font-weight:normal;font-stretch:normal;font-size:36.77280045px;font-family:Verdana;-inkscape-font-specification:Verdana;fill:#ffffff;fill-opacity:1;stroke-width:0.35817599"
         x="173.14812"
         y="105.25275">Simple</tspan></text>
    <path
       style="fill:#cacdcf;fill-opacity:1;stroke-width:0.07197222"
       d=""
       id="path11067"
       inkscape:connector-curvature="0" />
    <path
       style="fill:#cacdcf;fill-opacity:1;stroke-width:0.02924942"
       d=""
       id="path11369"
       inkscape:connector-curvature="0" />
    <path
       style="fill:#cacdcf;fill-opacity:1;stroke-width:0.02924942"
       d=""
       id="path11720"
       inkscape:connector-curvature="0" />
    <path
       style="fill:#cacdcf;fill-opacity:1;stroke-width:0.02924942"
       d=""
       id="path12383"
       inkscape:connector-curvature="0" />
    <path
       style="fill:#cacdcf;fill-opacity:1;stroke-width:0.0292494"
       d="m 268.24547,210.22501 c -0.55934,-1.06955 -1.37523,-2.10329 -2.22367,-2.81741 -0.56168,-0.47276 -0.99373,-0.74848 -1.92564,-1.22885 -0.34009,-0.17531 -0.60223,-0.31897 -0.58254,-0.31925 0.0655,-0.001 0.48596,0.17745 0.85881,0.36435 1.36064,0.68206 2.46406,1.65929 3.31485,2.93575 0.25939,0.38918 0.70349,1.20785 0.68462,1.26206 -0.005,0.0149 -0.0621,-0.0736 -0.12643,-0.19665 z"
       id="path11954"
       inkscape:connector-curvature="0" />
    <path
       style="fill:#cacdcf;fill-opacity:1;stroke-width:0.0292494"
       d="m 207.80158,205.32808 c 0.13674,-0.0105 1.17656,-0.0181 2.3107,-0.017 1.13415,0.001 2.01602,0.006 1.95971,0.0109 -0.0563,0.005 -1.09612,0.0126 -2.3107,0.017 -1.21458,0.004 -2.09645,-5.3e-4 -1.95971,-0.0109 z"
       id="path12266"
       inkscape:connector-curvature="0" />
    <path
       style="fill:#cacdcf;fill-opacity:1;stroke-width:0.0292494"
       d="m 200.60622,209.84445 c 0,-0.0487 0.4554,-0.77268 0.65195,-1.03648 0.90482,-1.21437 2.10959,-2.17767 3.46622,-2.77149 0.43409,-0.19001 0.38044,-0.13683 -0.12562,0.1245 -1.01989,0.52667 -1.67377,1.00451 -2.48733,1.81767 -0.55836,0.55808 -1.03425,1.149 -1.37288,1.70469 -0.10785,0.17699 -0.13234,0.2068 -0.13234,0.16111 z"
       id="path12422"
       inkscape:connector-curvature="0" />
    <path
       style="fill:#cacdcf;fill-opacity:1;stroke-width:0.0292494"
       d="m 207.90719,205.32726 c 0.008,-0.0132 0.35299,-0.0225 0.76629,-0.0206 0.41329,0.002 0.7317,0.008 0.70757,0.013 -0.10238,0.0223 -1.48737,0.0295 -1.47386,0.008 z"
       id="path12461"
       inkscape:connector-curvature="0" />
    <rect
       style="fill:#cacdcf;fill-opacity:1;stroke-width:0.26458299"
       id="rect3714"
       width="25.135406"
       height="25.135406"
       x="155.04585"
       y="134.9375"
       rx="4.6302085"
       ry="4.6302085" />
    <rect
       style="fill:#cacdcf;fill-opacity:1;stroke-width:0.26458299"
       id="rect3714-5"
       width="25.135406"
       height="25.135406"
       x="189.4417"
       y="134.9375"
       rx="4.6302085"
       ry="4.6302085" />
    <rect
       style="fill:#cacdcf;fill-opacity:1;stroke-width:0.26458299"
       id="rect3714-8"
       width="25.135406"
       height="25.135406"
       x="189.4417"
       y="134.93752"
       rx="4.6302085"
       ry="4.6302085" />
    <rect
       style="fill:#cacdcf;fill-opacity:1;stroke-width:0.26458299"
       id="rect3714-5-0"
       width="25.135406"
       height="25.135406"
       x="223.83754"
       y="134.93752"
       rx="4.6302085"
       ry="4.6302085" />
    <rect
       style="fill:#cacdcf;fill-opacity:1;stroke-width:0.26458299"
       id="rect3714-54"
       width="25.135406"
       height="25.135406"
       x="223.83752"
       y="134.93752"
       rx="4.6302085"
       ry="4.6302085" />
    <rect
       style="fill:#cacdcf;fill-opacity:1;stroke-width:0.26458299"
       id="rect3714-5-8"
       width="25.135406"
       height="25.135406"
       x="258.23334"
       y="134.93752"
       rx="4.6302085"
       ry="4.6302085" />
    <rect
       style="fill:#cacdcf;fill-opacity:1;stroke-width:0.26458299"
       id="rect3714-2"
       width="25.135406"
       height="25.135406"
       x="258.23334"
       y="134.9375"
       rx="4.6302085"
       ry="4.6302085" />
    <rect
       style="fill:#cacdcf;fill-opacity:1;stroke-width:0.26458299"
       id="rect3714-5-81"
       width="25.135406"
       height="25.135406"
       x="292.62918"
       y="134.9375"
       rx="4.6302085"
       ry="4.6302085" />
    <rect
       style="fill:#cacdcf;fill-opacity:1;stroke-width:0.26458299"
       id="rect3714-1"
       width="25.135406"
       height="25.135406"
       x="155.04585"
       y="169.33331"
       rx="4.6302085"
       ry="4.6302085" />
    <rect
       style="fill:#cacdcf;fill-opacity:1;stroke-width:0.26458299"
       id="rect3714-5-1"
       width="25.135406"
       height="25.135406"
       x="189.4417"
       y="169.33331"
       rx="4.6302085"
       ry="4.6302085" />
    <rect
       style="fill:#cacdcf;fill-opacity:1;stroke-width:0.26458299"
       id="rect3714-8-2"
       width="25.135406"
       height="25.135406"
       x="189.4417"
       y="169.33333"
       rx="4.6302085"
       ry="4.6302085" />
    <rect
       style="fill:#cacdcf;fill-opacity:1;stroke-width:0.26458299"
       id="rect3714-5-0-0"
       width="25.135406"
       height="25.135406"
       x="223.83754"
       y="169.33333"
       rx="4.6302085"
       ry="4.6302085" />
    <rect
       style="fill:#cacdcf;fill-opacity:1;stroke-width:0.26458299"
       id="rect3714-54-5"
       width="25.135406"
       height="25.135406"
       x="223.83752"
       y="169.33333"
       rx="4.6302085"
       ry="4.6302085" />
    <rect
       style="fill:#cacdcf;fill-opacity:1;stroke-width:0.26458299"
       id="rect3714-5-8-6"
       width="25.135406"
       height="25.135406"
       x="258.23334"
       y="169.33333"
       rx="4.6302085"
       ry="4.6302085" />
    <rect
       style="fill:#cacdcf;fill-opacity:1;stroke-width:0.26458299"
       id="rect3714-2-3"
       width="25.135406"
       height="25.135406"
       x="258.23334"
       y="169.33331"
       rx="4.6302085"
       ry="4.6302085" />
    <rect
       style="fill:#cacdcf;fill-opacity:1;stroke-width:0.26458299"
       id="rect3714-5-81-6"
       width="25.135406"
       height="25.135406"
       x="292.62918"
       y="169.33331"
       rx="4.6302085"
       ry="4.6302085" />
    <g
       id="g29587"
       transform="translate(-1.0583333)">
      <rect
         style="fill:#cacdcf;fill-opacity:1;stroke-width:0.31540301"
         id="rect3714-5-5"
         width="35.718735"
         height="25.135406"
         x="190.5"
         y="203.72917"
         rx="6.5797696"
         ry="4.6302085" />
      <rect
         style="fill:#cacdcf;fill-opacity:1;stroke-width:0.33246499"
         id="rect3714-5-8-4"
         width="39.687492"
         height="25.135406"
         x="244.73959"
         y="203.72917"
         rx="7.3108573"
         ry="4.6302085" />
      <rect
         style="fill:#cacdcf;fill-opacity:1;stroke-width:0.32420799"
         id="rect29500"
         width="62.177086"
         height="25.104155"
         x="207.69792"
         y="203.72917" />
    </g>
  </g>
</svg>
